<?xml version="1.0" encoding="UTF-8"?><svg id="a" xmlns="http://www.w3.org/2000/svg" viewBox="0 0 1024 1024"><defs><style>.b{fill:none;stroke:#6ccaf8;stroke-miterlimit:10;stroke-width:18px;}.c{fill:#292c30;}</style></defs><path class="c" d="M289.79,488.37l77.21,173.63s-222.13-38.57-331.07-338.77h0C98.12,166.52,235.44,47.81,403.43,11.54c0,0-194.85,204.21-113.64,476.83Z"/><path class="c" d="M734.21,535.63l-77.21-173.63s222.13,38.57,331.07,338.77h0c-62.19,156.71-199.51,275.42-367.5,311.69,0,0,194.85-204.21,113.64-476.83Z"/><path class="c" d="M602.87,716.15l111.59-153.81s77.9,211.57-127.34,456.24h0c-166.77,24.68-338.31-34.69-453.86-161.91,0,0,274.35,66.33,469.61-140.53Z"/><path class="c" d="M421.13,307.85l-111.59,153.81S231.64,250.09,436.87,5.41h0c166.77-24.68,338.31,34.69,453.86,161.91,0,0-274.35-66.33-469.61,140.53Z"/><path class="c" d="M643.37,331.23l-189-19.74s144.27-173.25,458.79-117.85h0c104.76,132.1,139.11,310.33,86.71,474.01,0,0-79.73-270.76-356.51-336.43Z"/><path class="c" d="M380.63,692.77l189,19.74s-144.27,173.25-458.79,117.85h0C6.07,698.26-28.27,520.02,24.13,356.34c0,0,79.73,270.76,356.51,336.43Z"/><path class="b" d="M623.36,358.73l77.06,173.08-111.36,153.27-188.42-19.8-77.06-173.08,111.36-153.27,188.42,19.8Zm-299.78,133.47l188.42,19.8,111.36-153.27m-111.36,153.27l77.06,173.08"/></svg>